<?xml version="1.0" standalone="no"?>
<!DOCTYPE svg PUBLIC "-//W3C//DTD SVG 20010904//EN"
 "http://www.w3.org/TR/2001/REC-SVG-20010904/DTD/svg10.dtd">
<svg version="1.0" xmlns="http://www.w3.org/2000/svg"
 width="512.000000pt" height="512.000000pt" viewBox="0 0 512.000000 512.000000"
 preserveAspectRatio="xMidYMid meet">

<g transform="translate(0.000000,512.000000) scale(0.100000,-0.100000)"
fill="#000000" stroke="none">
<path d="M1810 5109 c-150 -29 -291 -174 -320 -328 -6 -33 -10 -315 -10 -732
l0 -678 -172 -56 c-95 -31 -183 -63 -195 -71 -36 -23 -43 -75 -43 -318 0 -178
-3 -227 -12 -224 -7 3 -65 22 -128 43 -63 21 -117 39 -118 41 -2 1 23 29 55
61 108 108 157 224 157 373 0 231 -167 441 -395 495 -288 68 -579 -134 -622
-430 -29 -197 72 -406 244 -507 40 -24 158 -69 323 -124 144 -48 264 -89 268
-93 4 -4 -93 -40 -215 -80 -296 -98 -341 -116 -415 -168 -152 -108 -236 -309
-204 -494 41 -240 262 -429 500 -429 309 0 554 276 512 577 -17 127 -65 218
-163 310 l-55 52 134 45 134 45 0 -227 c0 -240 7 -292 43 -317 12 -9 100 -41
195 -72 l172 -57 0 -676 c0 -416 4 -698 10 -731 30 -159 170 -299 329 -329 74
-14 2888 -14 2962 0 159 30 299 170 329 329 14 74 14 4368 0 4442 -30 159
-170 299 -329 329 -83 15 -1049 13 -1081 -3 -14 -7 -33 -29 -43 -50 -18 -36
-18 -38 0 -74 10 -21 29 -43 43 -50 18 -9 108 -13 333 -13 l307 0 0 -2360 0
-2360 -1035 0 -1035 0 2 672 3 673 90 6 c145 11 264 42 408 107 l67 31 0 -351
c0 -394 2 -411 65 -473 57 -57 128 -77 205 -55 53 15 568 349 601 390 41 51
56 118 41 177 -7 27 -25 64 -41 83 -33 42 -550 375 -604 391 l-38 10 26 30
c16 20 25 43 25 66 0 67 -21 78 -400 201 -190 62 -367 121 -395 130 l-50 17
-3 1308 -2 1307 292 0 c213 0 300 4 318 13 14 7 33 29 43 50 18 36 18 38 0 74
-10 21 -29 43 -43 50 -30 15 -995 17 -1070 2z m260 -519 l0 -330 -195 0 -195
0 0 243 c0 267 5 290 66 351 52 52 97 66 217 66 l107 0 0 -330z m2715 311 c51
-23 93 -65 116 -116 16 -35 19 -69 19 -282 l0 -243 -190 0 -190 0 0 330 0 330
103 0 c77 0 112 -5 142 -19z m-2715 -1141 l0 -300 -195 0 -195 0 0 300 0 300
195 0 195 0 0 -300z m2850 0 l0 -300 -190 0 -190 0 0 300 0 300 190 0 190 0 0
-300z m-4275 -264 c194 -88 240 -349 89 -500 -165 -165 -442 -97 -518 127 -69
203 102 419 318 402 33 -3 83 -16 111 -29z m1425 -536 l0 -300 -56 0 c-87 0
-134 -35 -134 -100 0 -65 47 -100 134 -100 l56 0 0 -44 0 -44 -192 62 -193 62
-3 382 -2 382 195 0 195 0 0 -300z m2850 0 l0 -300 -190 0 -190 0 0 300 0 300
190 0 190 0 0 -300z m-3440 2 l0 -198 -98 -32 c-54 -18 -101 -32 -105 -32 -4
0 -6 88 -5 197 l3 196 95 33 c52 18 98 33 103 33 4 1 7 -88 7 -197z m3440
-802 l0 -300 -190 0 -190 0 0 300 0 300 190 0 190 0 0 -300z m-2863 5 l763
-249 -28 -18 c-57 -40 -165 -89 -249 -115 -80 -24 -103 -27 -253 -27 -130 -1
-179 3 -230 17 -82 23 -737 233 -767 247 -23 9 -23 12 -23 206 0 153 3 195 13
192 6 -3 355 -117 774 -253z m-1400 13 c25 -12 65 -44 89 -71 144 -161 79
-420 -126 -498 -146 -55 -316 15 -387 160 -24 47 -28 69 -28 136 0 67 5 88 27
130 84 160 267 222 425 143z m1170 -542 c76 -24 162 -49 191 -56 l52 -12 0
-254 0 -254 -195 0 -195 0 0 310 c0 171 2 310 5 310 2 0 67 -20 142 -44z
m1484 -141 c134 -86 244 -160 244 -166 0 -9 -493 -329 -507 -329 -5 0 -8 149
-8 331 0 272 2 330 13 326 8 -3 124 -76 258 -162z m1609 -135 l0 -300 -190 0
-190 0 0 300 0 300 190 0 190 0 0 -300z m-2850 -830 l0 -330 -107 0 c-120 0
-165 14 -217 66 -61 61 -66 84 -66 352 l0 242 195 0 195 0 0 -330z m2850 88
c0 -268 -5 -291 -66 -352 -51 -51 -98 -66 -211 -66 l-103 0 0 330 0 330 190 0
190 0 0 -242z"/>
<path d="M3265 5111 c-64 -27 -81 -110 -32 -158 20 -21 37 -28 67 -28 116 0
130 170 15 190 -16 2 -39 1 -50 -4z"/>
<path d="M2965 4300 c-51 -25 -98 -79 -113 -128 -17 -56 -16 -710 0 -766 23
-76 118 -146 198 -146 12 0 40 5 60 11 56 17 569 349 601 389 16 19 34 56 41
82 15 60 0 127 -41 178 -33 41 -548 375 -601 390 -53 15 -100 11 -145 -10z
m340 -340 c138 -88 250 -164 250 -169 0 -9 -471 -316 -502 -328 -11 -4 -13 54
-13 326 0 182 3 331 8 331 4 0 120 -72 257 -160z"/>
<path d="M2435 2648 c-74 -40 -73 -139 2 -177 29 -15 152 -14 183 2 14 7 33
29 43 50 18 36 18 38 0 74 -10 21 -29 43 -43 50 -31 16 -158 16 -185 1z"/>
<path d="M2935 2648 c-74 -40 -73 -139 2 -177 29 -15 152 -14 183 2 14 7 33
29 43 50 18 36 18 38 0 74 -10 21 -29 43 -43 50 -31 16 -158 16 -185 1z"/>
<path d="M3435 2648 c-74 -40 -73 -139 2 -177 29 -15 152 -14 183 2 14 7 33
29 43 50 18 36 18 38 0 74 -10 21 -29 43 -43 50 -31 16 -158 16 -185 1z"/>
<path d="M3935 2648 c-74 -40 -73 -139 2 -177 29 -15 152 -14 183 2 14 7 33
29 43 50 18 36 18 38 0 74 -10 21 -29 43 -43 50 -31 16 -158 16 -185 1z"/>
</g>
</svg>
