<?xml version="1.0" encoding="UTF-8"?>
<svg width="44px" height="44px" viewBox="0 0 44 44" version="1.1" xmlns="http://www.w3.org/2000/svg" xmlns:xlink="http://www.w3.org/1999/xlink">
    <title>icon_twitter</title>
    <defs>
        <circle id="path-1" cx="22" cy="22" r="22"></circle>
    </defs>
    <g id="icon_twitter" stroke="none" stroke-width="1" fill="none" fill-rule="evenodd">
        <g id="Group" transform="translate(0.000000, 3.000000)">
            <g id="Twitter_Social_Icon_Rounded_Square_Color" transform="translate(0.000000, -3.000000)">
                <mask id="mask-2" fill="white">
                    <use xlink:href="#path-1"></use>
                </mask>
                <use id="Mask" fill="#1DA1F2" xlink:href="#path-1"></use>
                <g id="Dark_Blue" mask="url(#mask-2)" fill="#1DA1F2">
                    <g transform="translate(4.000000, 4.000000)" id="Path">
                        <path d="M31.5,36 L4.5,36 C2.016,36 0,33.984 0,31.5 L0,4.5 C0,2.016 2.016,0 4.5,0 L31.5,0 C33.984,0 36,2.016 36,4.5 L36,31.5 C36,33.984 33.984,36 31.5,36 Z"></path>
                    </g>
                </g>
                <g id="Logo__x2014__FIXED" mask="url(#mask-2)" fill="#FFFFFF">
                    <g transform="translate(9.000000, 11.000000)" id="Path">
                        <path d="M8.3316,21.5816 C18.3274,21.5816 23.797,13.2924 23.797,6.1162 C23.797,5.883 23.797,5.6498 23.7864,5.4166 C24.8464,4.6534 25.7686,3.6888 26.5,2.597 C25.5248,3.0316 24.4754,3.3178 23.373,3.4556 C24.4966,2.7878 25.3552,1.7172 25.7686,0.4452 C24.7192,1.0706 23.5532,1.5158 22.313,1.7596 C21.3166,0.6996 19.9068,0.0424 18.3486,0.0424 C15.3488,0.0424 12.9108,2.4804 12.9108,5.4802 C12.9108,5.9042 12.9638,6.3176 13.0486,6.7204 C8.533,6.4978 4.5262,4.3248 1.8444,1.0388 C1.378,1.8444 1.113,2.7772 1.113,3.7736 C1.113,5.6604 2.0776,7.3246 3.5298,8.2998 C2.6394,8.268 1.802,8.0242 1.0706,7.6214 C1.0706,7.6426 1.0706,7.6638 1.0706,7.6956 C1.0706,10.3244 2.9468,12.5292 5.4272,13.0274 C4.9714,13.1546 4.4944,13.2182 3.9962,13.2182 C3.6464,13.2182 3.3072,13.1864 2.9786,13.1228 C3.6676,15.2852 5.6816,16.854 8.056,16.8964 C6.1904,18.3592 3.8478,19.2284 1.3038,19.2284 C0.8692,19.2284 0.4346,19.2072 0.0106,19.1542 C2.4062,20.6806 5.2682,21.5816 8.3316,21.5816"></path>
                    </g>
                </g>
            </g>
        </g>
    </g>
</svg>
