<?xml version="1.0" encoding="utf-8"?>
<!-- Generator: Adobe Illustrator 16.0.0, SVG Export Plug-In . SVG Version: 6.00 Build 0)  -->
<!DOCTYPE svg PUBLIC "-//W3C//DTD SVG 1.1//EN" "http://www.w3.org/Graphics/SVG/1.1/DTD/svg11.dtd">
<svg version="1.1" id="Layer_1" xmlns="http://www.w3.org/2000/svg" xmlns:xlink="http://www.w3.org/1999/xlink" x="0px" y="0px"
	 width="256px" height="256px" viewBox="0 0 256 256" enable-background="new 0 0 256 256" xml:space="preserve">
<g>
	<g>
		<path fill="#FF6E69" d="M228.572,20.583c-26.711-26.705-70.164-26.705-96.868,0L9.97,142.316c-3.431,3.432-3.431,8.998,0,12.436
			c3.435,3.432,9.004,3.427,12.435,0L144.139,33.018c19.848-19.852,52.151-19.852,72.003,0c19.854,19.854,19.854,52.152,0,72.004
			L93.289,227.876c-13.331,13.336-35.018,13.323-48.348-0.004c-13.331-13.329-13.331-35.016-0.001-48.346L152.641,71.825
			c7.713-7.714,20.259-7.708,27.974,0c7.714,7.714,7.714,20.26,0,27.973l-69.411,69.414c-3.434,3.436-3.439,8.997,0,12.431
			c3.435,3.436,8.996,3.431,12.433,0l69.407-69.414c14.571-14.566,14.571-38.268,0.006-52.838c-14.57-14.565-38.272-14.56-52.838,0
			L32.506,167.098c-20.183,20.186-20.183,53.022,0.002,73.208c20.184,20.187,53.024,20.187,73.209,0.006l122.854-122.86
			C255.282,90.747,255.277,47.292,228.572,20.583z"/>
	</g>
	<path opacity="0.15" d="M228.572,117.451c25.938-25.938,26.679-67.667,2.231-94.515l-12.488,12.488
		c17.596,19.975,16.903,50.523-2.174,69.598L93.289,227.876c-13.331,13.336-35.018,13.323-48.348-0.004
		c-3.386-3.385-5.902-7.313-7.568-11.5l-13.098,13.096c2.223,3.87,4.93,7.535,8.234,10.838
		c20.184,20.187,53.024,20.187,73.209,0.006L228.572,117.451z"/>
	<path opacity="0.15" d="M180.614,99.798l-69.411,69.414c-3.434,3.436-3.439,8.997,0,12.431c3.435,3.436,8.996,3.431,12.433,0
		l69.407-69.414c14.354-14.343,14.534-37.538,0.623-52.151l-12.433,12.436C188.296,80.264,188.11,92.307,180.614,99.798z"/>
</g>
</svg>
