<svg height='100px' width='100px'  fill="#000000" xmlns="http://www.w3.org/2000/svg" xmlns:xlink="http://www.w3.org/1999/xlink" version="1.1" x="0px" y="0px" viewBox="0 0 100 100" enable-background="new 0 0 100 100" xml:space="preserve"><title>Line/FullView</title><desc>Created with Sketch.</desc><g><path d="M75.2,18H24.8c-4.851,0.022-8.778,3.949-8.8,8.8v34.4c0.022,4.851,3.949,8.778,8.8,8.8h50.4   c4.851-0.021,8.778-3.949,8.8-8.8V26.8C83.979,21.949,80.051,18.022,75.2,18z M80,61.2c0,2.651-2.148,4.8-4.8,4.8H24.8   c-2.651,0-4.8-2.148-4.8-4.8V26.8c0-2.651,2.149-4.8,4.8-4.8h50.4c2.651,0,4.8,2.149,4.8,4.8V61.2z"></path><path d="M69.96,78h-40c-1.104,0-2,0.896-2,2s0.896,2,2,2h40c1.104,0,2-0.896,2-2S71.064,78,69.96,78z"></path><path d="M63.04,42.24l-20-12c-0.637-0.342-1.403-0.342-2.04,0c-0.616,0.374-0.994,1.04-1,1.76v24c0.006,0.721,0.384,1.387,1,1.76   c0.311,0.155,0.653,0.237,1,0.24c0.37-0.004,0.731-0.115,1.04-0.32l20-12c0.587-0.375,0.942-1.023,0.942-1.72   C63.982,43.263,63.627,42.615,63.04,42.24z M44,52.48V35.52L58.12,44L44,52.48z"></path></g></svg>