<svg xmlns="http://www.w3.org/2000/svg" xmlns:xlink="http://www.w3.org/1999/xlink" version="1.1" x="0px" y="0px" viewBox="0 0 24 30" style="enable-background:new 0 0 24 24;" xml:space="preserve"><g><g><path d="M15.495,8H2.504C1.123,8,0,9.123,0,10.504v8.992C0,20.877,1.123,22,2.504,22h12.991c1.381,0,2.504-1.123,2.504-2.504    v-8.992C17.999,9.123,16.876,8,15.495,8z M15.999,19.496c0,0.278-0.226,0.504-0.504,0.504H2.504C2.226,20,2,19.774,2,19.496    v-8.992C2,10.226,2.226,10,2.504,10h12.991c0.278,0,0.504,0.226,0.504,0.504V19.496z"/><path d="M18.496,5H3C2.448,5,2,5.448,2,6s0.448,1,1,1h15.496C18.774,7,19,7.226,19,7.504V18c0,0.553,0.447,1,1,1s1-0.447,1-1    V7.504C21,6.123,19.877,5,18.496,5z"/><path d="M21.496,2H6C5.448,2,5,2.448,5,3s0.448,1,1,1h15.496C21.774,4,22,4.226,22,4.504V15c0,0.553,0.447,1,1,1s1-0.447,1-1    V4.504C24,3.123,22.877,2,21.496,2z"/><path d="M11.49,14.129l-4-2.25c-0.311-0.175-0.689-0.172-0.995,0.008C6.188,12.066,6,12.395,6,12.75v4.5    c0,0.355,0.188,0.684,0.495,0.863C6.651,18.204,6.826,18.25,7,18.25c0.169,0,0.338-0.043,0.49-0.129l4-2.25    C11.805,15.694,12,15.361,12,15S11.805,14.306,11.49,14.129z"/></g></g><text x="0" y="39" fill="#000000" font-size="5px" font-weight="bold" font-family="'Helvetica Neue', Helvetica, Arial-Unicode, Arial, Sans-serif">Created by ✦ Shmidt Sergey ✦</text><text x="0" y="44" fill="#000000" font-size="5px" font-weight="bold" font-family="'Helvetica Neue', Helvetica, Arial-Unicode, Arial, Sans-serif">from the Noun Project</text></svg>