<?xml version="1.0" encoding="UTF-8" standalone="no"?>
<!-- Created with Inkscape (http://www.inkscape.org/) -->

<svg
   xmlns:dc="http://purl.org/dc/elements/1.1/"
   xmlns:cc="http://creativecommons.org/ns#"
   xmlns:rdf="http://www.w3.org/1999/02/22-rdf-syntax-ns#"
   xmlns:svg="http://www.w3.org/2000/svg"
   xmlns="http://www.w3.org/2000/svg"
   xmlns:sodipodi="http://sodipodi.sourceforge.net/DTD/sodipodi-0.dtd"
   xmlns:inkscape="http://www.inkscape.org/namespaces/inkscape"
   width="250"
   height="250"
   id="svg2"
   version="1.1"
   inkscape:version="0.48.4 r"
   sodipodi:docname="hatebu.svg">
  <defs
     id="defs4" />
  <sodipodi:namedview
     id="base"
     pagecolor="#ffffff"
     bordercolor="#666666"
     borderopacity="1.0"
     inkscape:pageopacity="0.0"
     inkscape:pageshadow="2"
     inkscape:zoom="2.8"
     inkscape:cx="102.53528"
     inkscape:cy="123.6372"
     inkscape:document-units="px"
     inkscape:current-layer="layer1"
     showgrid="false"
     inkscape:window-width="1857"
     inkscape:window-height="1177"
     inkscape:window-x="-8"
     inkscape:window-y="-8"
     inkscape:window-maximized="1" />
  <metadata
     id="metadata7">
    <rdf:RDF>
      <cc:Work
         rdf:about="">
        <dc:format>image/svg+xml</dc:format>
        <dc:type
           rdf:resource="http://purl.org/dc/dcmitype/StillImage" />
        <dc:title></dc:title>
      </cc:Work>
    </rdf:RDF>
  </metadata>
  <g
     inkscape:label="レイヤー 1"
     inkscape:groupmode="layer"
     id="layer1"
     transform="translate(0,-802.36218)">
    <path
       style="fill:#000000"
       d="M 28.31225,1052.0831 C 15.217759,1048.8969 4.6189114,1038.3206 1.2955145,1025.1236 0.4472434,1021.7552 0.35298547,1010.0354 0.50151313,926.40448 L 0.67004495,831.50744 2.3139971,827.28192 C 6.7742219,815.81765 13.824649,808.78216 25.353354,804.29137 l 4.149089,-1.6162 93.705317,-0.18104 c 65.75958,-0.12705 94.92036,0.0236 97.77947,0.50504 5.90565,0.99452 13.6221,4.92826 18.3258,9.34224 4.37962,4.10986 7.35106,8.63864 9.80283,14.94051 l 1.64396,4.22552 0,96.21204 0,96.21202 -1.44896,4.1934 c -3.71735,10.7586 -12.1777,19.1696 -23.30931,23.1735 l -4.07414,1.4653 -94.9589,0.1095 c -80.63999,0.093 -95.51642,-0.026 -98.65626,-0.7901 z m 152.92438,-70.39544 c 7.7525,-3.52097 10.97789,-12.61091 7.13973,-20.12159 -5.25812,-10.28936 -20.40733,-10.23095 -25.72154,0.0991 -4.9152,9.55453 2.16112,21.18411 12.89002,21.18411 1.72368,0 4.28499,-0.52276 5.69179,-1.16169 z m -59.59585,-1.21161 c 15.92127,-4.32604 23.51902,-13.87781 23.49724,-29.54038 -0.0187,-13.42257 -5.74472,-22.02659 -17.27316,-25.9547 -1.65003,-0.56222 -3.79596,-1.02222 -4.76875,-1.02222 -2.26373,0 -2.29255,-0.98808 -0.0451,-1.5441 3.57225,-0.88377 9.65759,-4.36805 11.83161,-6.77442 3.29862,-3.65116 4.72289,-7.37695 5.09401,-13.32557 0.89367,-14.3244 -5.96523,-23.24548 -21.05987,-27.39163 -4.45339,-1.22326 -6.7646,-1.33673 -32.219653,-1.58191 l -27.4221,-0.26412 0,54.64062 0,54.64062 28.675714,-0.25985 c 27.030549,-0.24496 28.963379,-0.33804 33.690029,-1.62234 z M 87.417025,962.43472 c -0.035,-0.30539 -0.105512,-5.72981 -0.156694,-12.05425 l -0.09303,-11.499 10.342053,0.2168 c 9.542056,0.20004 10.584486,0.33802 13.476016,1.78377 2.39893,1.19946 3.46472,2.2229 4.54423,4.36364 3.42691,6.79573 0.59999,13.89954 -6.39929,16.08086 -3.53989,1.10321 -21.608144,2.02536 -21.713254,1.10818 z M 86.9955,908.1928 l 0.17176,-10.87256 3.447354,-0.2013 c 5.108233,-0.29828 15.030676,1.0189 17.194286,2.28251 4.16848,2.43451 5.79488,9.63979 3.25652,14.42692 -1.90256,3.58805 -5.47354,4.73319 -15.608239,5.00523 l -8.633442,0.23174 0.171761,-10.87254 z m 101.39858,1.34982 0,-36.98052 -12.84924,0 -12.84922,0 0,36.98052 0,36.98052 12.84922,0 12.84924,0 0,-36.98052 z"
       id="path3007"
       inkscape:connector-curvature="0" />
  </g>
</svg>
