<svg height='100px' width='100px'  fill="#000000" xmlns="http://www.w3.org/2000/svg" xmlns:xlink="http://www.w3.org/1999/xlink" version="1.1" x="0px" y="0px" viewBox="0 0 95 95" enable-background="new 0 0 95 95" xml:space="preserve"><g><g><path d="M47.5,90.913c-23.938,0-43.412-19.475-43.412-43.413S23.563,4.087,47.5,4.087S90.912,23.562,90.912,47.5    S71.438,90.913,47.5,90.913z M47.5,6.006C24.621,6.006,6.007,24.621,6.007,47.5c0,22.88,18.614,41.494,41.493,41.494    S88.993,70.38,88.993,47.5C88.993,24.621,70.379,6.006,47.5,6.006z M47.5,83.237c-19.705,0-35.736-16.032-35.736-35.737    c0-19.705,16.031-35.736,35.736-35.736S83.236,27.795,83.236,47.5C83.236,67.205,67.205,83.237,47.5,83.237z M47.5,13.682    c-18.646,0-33.817,15.17-33.817,33.817c0,18.648,15.171,33.818,33.817,33.818S81.317,66.147,81.317,47.5    C81.317,28.853,66.146,13.682,47.5,13.682z"></path></g><g><path d="M37.873,69.196c-3.261,0-5.721-2.572-5.721-5.982v-31.43c0-3.41,2.46-5.982,5.721-5.982c1.069,0,2.153,0.3,3.137,0.867    l27.22,15.716c1.932,1.115,3.085,3.026,3.085,5.114s-1.153,4-3.086,5.115L41.011,68.329    C40.027,68.896,38.942,69.196,37.873,69.196z M37.873,27.722c-2.167,0-3.802,1.747-3.802,4.063v31.43    c0,2.316,1.635,4.063,3.802,4.063c0.733,0,1.486-0.211,2.178-0.611L67.27,50.952c1.331-0.768,2.126-2.06,2.126-3.453    s-0.795-2.685-2.125-3.452L40.05,28.332C39.358,27.933,38.606,27.722,37.873,27.722z"></path></g></g></svg>